<?xml version="1.0" encoding="utf-8"?>
<!-- Generator: Adobe Illustrator 22.0.1, SVG Export Plug-In . SVG Version: 6.00 Build 0)  -->
<svg version="1.1" id="Capa_1" xmlns="http://www.w3.org/2000/svg" xmlns:xlink="http://www.w3.org/1999/xlink" x="0px" y="0px"
	 viewBox="0 0 167.2 192.9" style="enable-background:new 0 0 167.2 192.9;" xml:space="preserve">
<style type="text/css">
	.st0{fill:#424243;}
</style>
<g>
	<polygon class="st0" points="58.3,67.9 63.7,67.9 63.7,70.2 62.6,70.2 59.7,80.4 56.1,80.4 54.2,72.6 52.3,80.4 48.8,80.4 
		45.8,70.2 44.6,70.2 44.6,67.9 49.9,67.9 49.9,70.2 48.6,70.2 50.5,76.9 52.7,67.9 55.8,67.9 57.9,76.9 59.8,70.2 58.3,70.2 	"/>
	<polygon class="st0" points="87.9,67.9 93.3,67.9 93.3,70.2 92.2,70.2 89.3,80.4 85.7,80.4 83.8,72.6 81.9,80.4 78.4,80.4 
		75.4,70.2 74.2,70.2 74.2,67.9 79.5,67.9 79.5,70.2 78.2,70.2 80.1,76.9 82.3,67.9 85.4,67.9 87.5,76.9 89.4,70.2 87.9,70.2 	"/>
	<polygon class="st0" points="117.5,67.9 122.9,67.9 122.9,70.2 121.8,70.2 118.9,80.4 115.3,80.4 113.4,72.6 111.5,80.4 108,80.4 
		105,70.2 103.8,70.2 103.8,67.9 109.1,67.9 109.1,70.2 107.8,70.2 109.7,76.9 111.9,67.9 115,67.9 117.1,76.9 119,70.2 117.5,70.2 
			"/>
	<path class="st0" d="M19.1,90h5v2.3H23v5.2c0,0.5,0,0.9,0.2,1.2s0.3,0.6,0.5,0.8c0.2,0.2,0.4,0.4,0.7,0.5c0.3,0.1,0.5,0.1,0.9,0.1
		c0.3,0,0.6,0,0.9-0.1s0.5-0.2,0.7-0.4c0.2-0.2,0.3-0.5,0.4-0.8c0.1-0.3,0.2-0.8,0.2-1.3v-5.2H26V90h5v2.3h-1v4.9
		c0,0.9-0.1,1.7-0.4,2.3c-0.2,0.7-0.6,1.3-1,1.7c-0.4,0.5-1,0.8-1.6,1.1c-0.6,0.2-1.2,0.4-1.9,0.4c-0.7,0-1.3-0.1-1.9-0.4
		c-0.6-0.2-1.1-0.6-1.5-1.1c-0.4-0.5-0.8-1-1-1.7s-0.4-1.4-0.4-2.3v-5h-1.1L19.1,90L19.1,90z"/>
	<polygon class="st0" points="47.2,90 52,90 52,92.3 50.9,92.3 50.9,102.5 48.2,102.5 43,94.4 43,100.3 44,100.3 44,102.5 
		39.3,102.5 39.3,100.3 40.3,100.3 40.3,92.3 39.3,92.3 39.3,90 43.1,90 48.3,98.2 48.3,92.3 47.2,92.3 	"/>
	<path class="st0" d="M60.1,100.3h1.3v-8h-1.3V90l6.1,0c0.6,0,1.1,0.1,1.6,0.3c0.5,0.2,0.9,0.5,1.2,0.8c0.3,0.3,0.6,0.8,0.8,1.2
		c0.2,0.5,0.3,0.9,0.3,1.5c0,0.6-0.1,1.1-0.3,1.5c-0.2,0.4-0.5,0.7-0.9,1c0.4,0.3,0.7,0.6,1,1c0.2,0.4,0.4,0.9,0.4,1.4
		s-0.1,1.1-0.3,1.6c-0.2,0.5-0.5,0.9-0.8,1.2c-0.3,0.3-0.7,0.6-1.2,0.8c-0.5,0.2-1,0.3-1.5,0.3h-6.3V100.3z M64.1,92.3v2.8h2
		c0.2,0,0.3,0,0.4-0.1c0.1-0.1,0.2-0.2,0.4-0.3c0.1-0.1,0.2-0.3,0.2-0.4s0.1-0.3,0.1-0.5s0-0.3-0.1-0.5c-0.1-0.2-0.1-0.3-0.2-0.5
		c-0.1-0.1-0.2-0.2-0.4-0.3c-0.1-0.1-0.3-0.1-0.4-0.1C66,92.3,64.1,92.3,64.1,92.3z M64.1,97.3v2.9h2.1c0.2,0,0.3,0,0.4-0.1
		c0.1-0.1,0.3-0.2,0.4-0.3c0.1-0.1,0.2-0.3,0.2-0.5c0.1-0.2,0.1-0.4,0.1-0.6s0-0.4-0.1-0.6c-0.1-0.2-0.1-0.3-0.2-0.4
		c-0.1-0.1-0.2-0.2-0.4-0.3c-0.1-0.1-0.3-0.1-0.4-0.1L64.1,97.3L64.1,97.3z"/>
	<path class="st0" d="M84.7,100.3H86l-0.6-1.8h-3.8l-0.6,1.8h1.3v2.3h-4.8v-2.3h0.9L81.9,90h3.3l3.3,10.2h0.9v2.3h-4.8L84.7,100.3
		L84.7,100.3z M82.2,96.3h2.5l-1.3-4.1L82.2,96.3z"/>
	<path class="st0" d="M97.3,90h6.6c0.6,0,1.2,0.1,1.7,0.3c0.5,0.2,0.9,0.4,1.3,0.8c0.3,0.3,0.6,0.7,0.8,1.1s0.3,0.9,0.3,1.3
		c0,0.4,0,0.8-0.1,1.1s-0.2,0.6-0.4,0.8c-0.2,0.2-0.4,0.5-0.6,0.7c-0.3,0.2-0.6,0.4-0.9,0.5c0.3,0.1,0.5,0.4,0.7,0.7
		c0.2,0.3,0.4,0.7,0.5,1.2l0.4,1.6h1l0,2.4h-3.6l-0.5-3c-0.1-0.3-0.1-0.7-0.2-0.9c-0.1-0.2-0.2-0.5-0.4-0.6
		c-0.2-0.2-0.4-0.3-0.6-0.4c-0.2-0.1-0.5-0.1-0.9-0.1h-1.1v2.7h1.2v2.3h-5.2v-2.3h1.3v-8h-1.3L97.3,90L97.3,90z M101.4,92.3v3h1.6
		c0.3,0,0.6,0,0.8-0.1c0.2-0.1,0.5-0.2,0.6-0.3c0.2-0.1,0.3-0.3,0.4-0.5c0.1-0.2,0.1-0.4,0.1-0.7c0-0.5-0.2-0.9-0.5-1.1
		c-0.3-0.3-0.9-0.4-1.5-0.4L101.4,92.3L101.4,92.3z"/>
	<path class="st0" d="M124.9,93.8c-0.3-0.4-0.6-0.8-0.8-0.9s-0.5-0.3-0.8-0.4c-0.3-0.1-0.6-0.1-0.9-0.1c-0.5,0-0.9,0.1-1.3,0.3
		c-0.4,0.2-0.7,0.5-1,0.8c-0.3,0.4-0.5,0.8-0.7,1.2s-0.2,1-0.2,1.5s0.1,1,0.2,1.5c0.2,0.5,0.4,0.9,0.7,1.2c0.3,0.4,0.6,0.6,1,0.8
		c0.4,0.2,0.8,0.3,1.3,0.3c0.3,0,0.6-0.1,0.9-0.2s0.5-0.2,0.8-0.4c0.2-0.2,0.4-0.4,0.6-0.6c0.2-0.2,0.3-0.5,0.4-0.7l2.7,0.8
		c-0.2,0.5-0.4,1-0.8,1.5c-0.3,0.5-0.7,0.9-1.2,1.2c-0.5,0.3-1,0.6-1.6,0.8c-0.6,0.2-1.2,0.3-1.9,0.3c-0.6,0-1.1-0.1-1.6-0.2
		c-0.5-0.2-1-0.4-1.4-0.7s-0.9-0.6-1.2-1c-0.4-0.4-0.7-0.8-0.9-1.3c-0.3-0.5-0.5-1-0.6-1.6c-0.1-0.6-0.2-1.1-0.2-1.7
		c0-0.9,0.2-1.7,0.5-2.5c0.3-0.8,0.7-1.5,1.3-2.1c0.5-0.6,1.2-1.1,1.9-1.4c0.7-0.3,1.5-0.5,2.4-0.5c0.7,0,1.2,0.1,1.7,0.2
		c0.5,0.2,1,0.5,1.5,1h1.9v2.8L124.9,93.8L124.9,93.8z"/>
	<path class="st0" d="M142,102.7c-0.6,0-1.1-0.1-1.6-0.2c-0.5-0.2-1-0.4-1.4-0.7s-0.9-0.6-1.2-1c-0.4-0.4-0.7-0.8-0.9-1.3
		c-0.3-0.5-0.5-1-0.6-1.6c-0.1-0.6-0.2-1.1-0.2-1.7c0-0.6,0.1-1.2,0.2-1.7c0.1-0.6,0.3-1.1,0.6-1.6c0.3-0.5,0.6-0.9,0.9-1.3
		c0.4-0.4,0.8-0.7,1.2-1s0.9-0.5,1.4-0.7c0.5-0.2,1.1-0.2,1.6-0.2c0.6,0,1.1,0.1,1.6,0.2c0.5,0.2,1,0.4,1.4,0.7s0.9,0.6,1.2,1
		c0.4,0.4,0.7,0.8,0.9,1.3c0.3,0.5,0.5,1,0.6,1.6s0.2,1.1,0.2,1.7c0,0.6-0.1,1.2-0.2,1.7c-0.1,0.6-0.4,1.1-0.6,1.6
		c-0.3,0.5-0.6,0.9-0.9,1.3c-0.4,0.4-0.8,0.7-1.2,1c-0.4,0.3-0.9,0.5-1.4,0.7C143.1,102.7,142.6,102.7,142,102.7 M142,100.1
		c0.5,0,0.9-0.1,1.3-0.3c0.4-0.2,0.7-0.5,1-0.8c0.3-0.4,0.5-0.8,0.7-1.2c0.1-0.5,0.2-1,0.2-1.5s-0.1-1-0.2-1.5s-0.4-0.9-0.7-1.2
		c-0.3-0.4-0.6-0.6-1-0.8c-0.4-0.2-0.8-0.3-1.3-0.3s-0.9,0.1-1.3,0.3c-0.4,0.2-0.7,0.5-1,0.8c-0.3,0.4-0.5,0.8-0.7,1.2
		s-0.2,1-0.2,1.5s0.1,1,0.2,1.5s0.4,0.9,0.7,1.2c0.3,0.3,0.6,0.6,1,0.8C141.1,100,141.5,100.1,142,100.1"/>
	<path class="st0" d="M59.9,115.9c-0.3-0.4-0.6-0.8-0.8-0.9c-0.2-0.2-0.5-0.3-0.8-0.4c-0.3-0.1-0.6-0.1-0.9-0.1
		c-0.4,0-0.9,0.1-1.3,0.3c-0.4,0.2-0.7,0.5-1,0.8c-0.3,0.4-0.5,0.8-0.7,1.2s-0.2,1-0.2,1.5s0.1,1,0.2,1.5c0.2,0.5,0.4,0.9,0.7,1.2
		c0.3,0.3,0.6,0.6,1,0.8c0.4,0.2,0.8,0.3,1.3,0.3c0.3,0,0.6-0.1,0.9-0.2c0.3-0.1,0.6-0.2,0.8-0.4c0.2-0.2,0.4-0.4,0.6-0.6
		c0.2-0.2,0.3-0.5,0.4-0.7l2.7,0.7c-0.2,0.5-0.4,1-0.8,1.5s-0.7,0.9-1.2,1.2c-0.5,0.3-1,0.6-1.6,0.8c-0.6,0.2-1.2,0.3-1.9,0.3
		c-0.6,0-1.1-0.1-1.6-0.2c-0.5-0.2-1-0.4-1.4-0.7s-0.9-0.6-1.2-1c-0.4-0.4-0.7-0.8-0.9-1.3c-0.3-0.5-0.5-1-0.6-1.6
		c-0.2-0.6-0.2-1.1-0.2-1.7c0-0.9,0.2-1.7,0.5-2.5s0.7-1.5,1.3-2.1c0.6-0.6,1.2-1.1,1.9-1.4c0.7-0.3,1.5-0.5,2.4-0.5
		c0.7,0,1.2,0.1,1.7,0.2c0.5,0.2,1,0.5,1.5,1h1.8v2.8L59.9,115.9L59.9,115.9z"/>
	<path class="st0" d="M80.4,124.8c-0.6,0-1.1-0.1-1.6-0.2s-1-0.4-1.4-0.7s-0.8-0.6-1.2-1c-0.4-0.4-0.7-0.8-0.9-1.3
		c-0.3-0.5-0.5-1-0.6-1.6s-0.2-1.1-0.2-1.7c0-0.6,0.1-1.2,0.2-1.7c0.1-0.6,0.3-1.1,0.6-1.6s0.6-0.9,0.9-1.3s0.8-0.7,1.2-1
		c0.4-0.3,0.9-0.5,1.4-0.7c0.5-0.2,1.1-0.2,1.6-0.2c0.6,0,1.1,0.1,1.6,0.2c0.5,0.2,1,0.4,1.4,0.7c0.4,0.3,0.9,0.6,1.2,1
		c0.4,0.4,0.7,0.8,0.9,1.3c0.3,0.5,0.5,1,0.6,1.6s0.2,1.1,0.2,1.7c0,0.6-0.1,1.2-0.2,1.7c-0.1,0.6-0.3,1.1-0.6,1.6
		c-0.3,0.5-0.6,0.9-0.9,1.3c-0.4,0.4-0.8,0.7-1.2,1c-0.4,0.3-0.9,0.5-1.4,0.7C81.5,124.7,80.9,124.8,80.4,124.8 M80.4,122.2
		c0.5,0,0.9-0.1,1.3-0.3c0.4-0.2,0.7-0.5,1-0.8s0.5-0.8,0.7-1.2c0.2-0.5,0.2-1,0.2-1.5c0-0.5-0.1-1-0.2-1.5
		c-0.2-0.5-0.4-0.9-0.7-1.2s-0.6-0.6-1-0.8c-0.4-0.2-0.8-0.3-1.3-0.3c-0.5,0-0.9,0.1-1.3,0.3c-0.4,0.2-0.7,0.5-1,0.8
		c-0.3,0.4-0.5,0.8-0.7,1.2c-0.2,0.5-0.2,1-0.2,1.5s0.1,1,0.2,1.5c0.2,0.5,0.4,0.9,0.7,1.2c0.3,0.4,0.6,0.6,1,0.8
		C79.5,122.1,79.9,122.2,80.4,122.2"/>
	<polygon class="st0" points="98.2,122.3 99.4,122.3 99.4,114.3 98.2,114.3 98.2,112.1 103.4,112.1 107.1,121.1 110.5,112.1 
		115.7,112.1 115.7,114.3 114.6,114.3 114.6,122.3 115.7,122.3 115.7,124.6 111,124.6 111,122.3 111.9,122.3 111.9,115.1 
		108.1,124.4 105.8,124.4 102,115.4 102,122.3 102.9,122.3 102.9,124.6 98.2,124.6 	"/>
	<path class="st0" d="M40.4,21.9l1,1.8L40.8,24c-0.1,0.1-0.2,0-0.3-0.1c0,0-0.2-0.3-0.5-0.8l-2.8,1.5l1.3,2.5l2.7-1.5l0.4,0.8
		L39,27.9l1.3,2.5l2.8-1.5c-0.2-0.5-0.3-0.7-0.3-0.8c0-0.1,0-0.2,0.1-0.3l0.5-0.3l0.9,1.7L39,32.2l-0.2-0.4c-0.1-0.1,0-0.2,0-0.3
		l0.5-0.4l-3.1-5.9c-0.4,0.1-0.6,0.2-0.7,0.2c-0.1,0-0.2,0-0.3-0.1l-0.2-0.5L40.4,21.9z"/>
	<path class="st0" d="M54,20.7c0.9,0.1,1.5,0.5,1.8,1.4c0.2,0.7,0.2,1.4-0.1,2c-0.3,0.6-0.9,1.1-1.7,1.4c-0.3,0.1-0.7,0.2-1.1,0.3
		c-0.4,0.1-0.7,0.1-1,0.1h-0.3l-0.7-2l0.5-0.2c0.1,0,0.2,0,0.3,0.1c0,0,0.1,0.2,0.2,0.5c0.1,0.3,0.2,0.5,0.2,0.5
		c0.6,0,1.1,0,1.4-0.1c0.3-0.1,0.6-0.2,0.8-0.4c0.2-0.1,0.3-0.3,0.4-0.5c0.2-0.4,0.2-0.8,0.1-1.2c-0.1-0.4-0.5-0.7-0.9-0.8
		c-0.2,0-0.4-0.1-0.7-0.1c-0.8,0-1.3,0-1.6,0c-0.3,0-0.5-0.1-0.7-0.2c-0.5-0.2-0.9-0.6-1.1-1.3c-0.2-0.6-0.2-1.2,0.1-1.7
		c0.3-0.6,0.8-1,1.5-1.3c0.7-0.2,1.5-0.4,2.4-0.3l0.6,1.8L53.9,19c-0.1,0-0.2,0-0.3-0.1c0,0-0.2-0.3-0.4-1c-0.5,0-1,0.1-1.4,0.2
		c-0.5,0.2-0.8,0.4-1,0.7c-0.2,0.3-0.2,0.6-0.1,1c0.1,0.4,0.4,0.6,0.9,0.7c0.2,0,0.4,0.1,0.7,0.1C53.2,20.7,53.7,20.7,54,20.7
		L54,20.7z"/>
	<path class="st0" d="M69.4,13.1l0.3,1.8L69.2,15c-0.1,0-0.2,0-0.2-0.1c0-0.1-0.1-0.3-0.2-0.8l-1.9,0.3l1.1,6.5c0,0,0.1,0,0.2,0
		c0.3,0,0.5,0,0.6,0c0.1,0,0.1,0.1,0.2,0.2l0.1,0.5l-2.8,0.5L66,21.7c0-0.1,0-0.2,0.1-0.2c0.1,0,0.3-0.1,0.6-0.2l-1.1-6.5L63.7,15
		c0,0.4,0,0.7,0,0.8S63.7,16,63.5,16L63,16.1l-0.3-1.8l6.2-1.1l0.4-0.1L69.4,13.1z"/>
	<path class="st0" d="M86.8,12.3v0.5c0,0.1-0.1,0.2-0.2,0.2l-0.7,0.1l0,4.2c0,1-0.3,1.8-0.9,2.4c-0.6,0.6-1.4,1-2.5,1
		c-1,0-1.8-0.3-2.4-1c-0.6-0.6-0.9-1.4-0.9-2.4l0-4.2c-0.4-0.1-0.6-0.1-0.7-0.1c-0.1,0-0.2-0.1-0.2-0.2l0-0.5l2.9,0v0.5
		c0,0.1-0.1,0.2-0.2,0.2c-0.1,0-0.3,0.1-0.8,0.1l0,4.2c0,0.7,0.2,1.3,0.6,1.7c0.4,0.5,0.9,0.7,1.6,0.7c0.7,0,1.2-0.2,1.6-0.7
		c0.4-0.4,0.6-1,0.6-1.7l0-4.2c-0.4-0.1-0.7-0.1-0.8-0.1c-0.1,0-0.2-0.1-0.2-0.2v-0.5h1h1.1L86.8,12.3z"/>
	<path class="st0" d="M103,18.9c-0.1,0.6-0.3,1.2-0.6,1.6c-0.3,0.5-0.7,0.9-1.1,1.1c-0.9,0.6-1.9,0.8-3.2,0.6l-3.8-0.7l0.1-0.5
		c0-0.1,0.1-0.2,0.2-0.2l0.7,0l1.2-6.5C96.3,14.1,96.1,14,96,14c-0.1,0-0.2-0.1-0.1-0.2l0.1-0.5l3.8,0.7c1.2,0.2,2.1,0.8,2.7,1.7
		C103.1,16.6,103.3,17.7,103,18.9L103,18.9z M101.9,17.3c-0.1-0.4-0.2-0.8-0.4-1.1c-0.4-0.7-1.1-1.1-1.9-1.2l-1.9-0.4L96.5,21
		l1.8,0.4c0.9,0.2,1.6,0,2.3-0.5c0.6-0.5,1.1-1.2,1.2-2.2C102,18.2,102,17.7,101.9,17.3"/>
	<path class="st0" d="M114.1,18.9l-2.3,6.3c0.3,0.2,0.5,0.3,0.6,0.4c0.1,0,0.1,0.1,0.1,0.2l-0.2,0.5l-2.7-1l0.2-0.5
		c0-0.1,0.1-0.2,0.2-0.1l0.7,0.1l2.3-6.3c-0.3-0.2-0.5-0.3-0.6-0.4c-0.1,0-0.1-0.1-0.1-0.2l0.2-0.5l2.7,1l-0.2,0.5
		c0,0.1-0.1,0.2-0.2,0.1L114.1,18.9z"/>
	<path class="st0" d="M128.8,29.5c-0.3,0.5-0.7,1-1.1,1.4c-0.4,0.4-0.9,0.6-1.4,0.8c-0.5,0.2-1,0.2-1.6,0.1
		c-0.5-0.1-1.1-0.2-1.6-0.5s-1-0.7-1.3-1.1c-0.4-0.4-0.6-0.9-0.7-1.4c-0.1-0.5-0.2-1-0.1-1.6c0.1-0.6,0.3-1.1,0.6-1.7s0.7-1,1.1-1.4
		c0.4-0.4,0.9-0.6,1.4-0.8c0.5-0.2,1-0.2,1.6-0.1s1.1,0.2,1.6,0.5c0.5,0.3,1,0.7,1.3,1.1s0.6,0.9,0.7,1.4c0.1,0.5,0.2,1,0.1,1.6
		C129.3,28.4,129.1,29,128.8,29.5L128.8,29.5z M127.7,29c0.2-0.5,0.4-0.9,0.5-1.3c0.1-0.4,0.1-0.8,0-1.2c-0.1-0.4-0.3-0.7-0.5-1
		c-0.2-0.3-0.6-0.6-1-0.8c-0.4-0.2-0.8-0.4-1.2-0.4c-0.4,0-0.8,0-1.1,0.1c-0.4,0.1-0.7,0.3-1,0.6s-0.6,0.7-0.9,1.1s-0.4,0.9-0.5,1.3
		c-0.1,0.4-0.1,0.8,0,1.2s0.2,0.7,0.5,1c0.2,0.3,0.6,0.6,1,0.8c0.4,0.2,0.8,0.3,1.2,0.4c0.4,0,0.8,0,1.1-0.1s0.7-0.3,1-0.6
		C127.2,29.8,127.5,29.4,127.7,29L127.7,29z"/>
	<path class="st0" d="M37,157.1c0.5,0.4,1.1,1.1,1.7,2l-0.4,0.5l-0.8,1l-0.5-0.3c-0.1-0.1-0.1-0.2-0.1-0.3c0,0,0.1-0.2,0.3-0.5
		c0.2-0.3,0.3-0.4,0.3-0.4c-1.1-1.5-2.2-2.1-3.5-1.9c-0.8,0.1-1.5,0.6-2.1,1.4c-0.6,0.8-0.9,1.6-0.8,2.4c0.1,0.8,0.5,1.4,1.1,1.9
		c0.4,0.3,0.7,0.5,1,0.6c0.4,0.1,0.8,0.2,1.2,0.1c0.1,0,0.2,0,0.2,0.1c0,0,0.1,0.1,0.1,0.2l0.1,0.7c-1.1,0.2-2.1,0-3.2-0.8
		c-1-0.7-1.5-1.6-1.6-2.7c-0.1-1.1,0.2-2.1,1-3.1c0.8-1,1.7-1.6,2.8-1.8C34.9,156.1,36,156.4,37,157.1L37,157.1L37,157.1z"/>
	<path class="st0" d="M48.2,172.6c0.1,0.1,0.1,0.2,0.1,0.3l-0.2,0.4l-0.2-0.1l-0.6-0.3l-0.3-0.2c-0.2-0.1-0.3-0.2-0.3-0.4l-0.6-3.7
		c0-0.1,0-0.2-0.1-0.3s-0.1-0.1-0.3-0.2l-0.7-0.3l-1.2,2.4c0,0,0.5,0.3,0.5,0.4c0.1,0.1,0.1,0.2,0.1,0.3l-0.2,0.4l-0.8-0.4l-1-0.5
		l-0.8-0.4l0.2-0.4c0-0.1,0.2-0.1,0.3-0.1c0.1,0,0.7,0.2,0.7,0.2l2.9-6c0,0-0.5-0.3-0.5-0.4c-0.1-0.1-0.1-0.2-0.1-0.3l0.2-0.4
		l0.8,0.4l2,1c0.5,0.2,0.8,0.5,1.2,0.8c0.3,0.3,0.5,0.6,0.7,0.8c0.1,0.3,0.2,0.6,0.2,0.9c0,0.3-0.1,0.6-0.3,0.9
		c-0.1,0.3-0.3,0.5-0.5,0.7c-0.2,0.2-0.4,0.3-0.7,0.4c-0.2,0.1-0.5,0.2-0.8,0.2s-0.6,0-0.9-0.1c0.1,0.1,0.2,0.3,0.2,0.5l0.5,3
		C47.7,172.3,48.1,172.6,48.2,172.6L48.2,172.6z M46.3,167.6c0.3,0.2,0.6,0.2,0.8,0.3c0.2,0,0.5,0,0.7,0c0.2-0.1,0.4-0.2,0.6-0.3
		c0.2-0.1,0.3-0.3,0.4-0.5c0.2-0.4,0.2-0.9,0.1-1.2c-0.2-0.4-0.6-0.7-1.1-1l-1-0.5l-1.4,2.8L46.3,167.6L46.3,167.6z"/>
	<path class="st0" d="M64.4,170.1l-0.6,1.9l-0.5-0.2c-0.1,0-0.2-0.1-0.2-0.3c0,0,0.1-0.3,0.2-0.9l-3-0.9l-0.8,2.7l3,0.9l-0.2,0.9
		l-3-0.8l-0.8,2.8l3,0.9c0.2-0.5,0.3-0.8,0.3-0.8c0.1-0.1,0.2-0.2,0.3-0.1l0.5,0.1l-0.5,1.9l-5.8-1.6l0.1-0.5c0-0.1,0.1-0.2,0.2-0.2
		l0.7,0.1l1.8-6.4c-0.3-0.2-0.5-0.3-0.6-0.3c-0.1-0.1-0.1-0.1-0.1-0.3l0.1-0.5L64.4,170.1z"/>
	<path class="st0" d="M79.5,180.1l0,0.5l-2.4-0.2l0-0.5c0-0.1,0.1-0.2,0.2-0.2l0.5-0.1l-0.5-1.7l-3.6-0.3l-0.8,1.6l0.5,0.2
		c0.1,0,0.2,0.1,0.1,0.2l0,0.5l-2.4-0.2l0-0.5c0-0.1,0.1-0.2,0.2-0.2l0.5-0.1l3.7-7.3l1.2,0.1l2.4,7.8l0.4,0.2
		C79.5,180,79.5,180,79.5,180.1 M77,177.1l-1-3.3c-0.1-0.2-0.1-0.5-0.2-0.8c-0.1,0.3-0.2,0.6-0.3,0.8l-1.5,3.1L77,177.1z"/>
	<path class="st0" d="M94.3,171.4l0.2,1.9l-0.6,0.1c-0.1,0-0.2,0-0.2-0.1c0-0.1-0.1-0.3-0.2-0.8l-2,0.2l0.7,6.6c0,0,0.1,0,0.2,0
		c0.3,0,0.5,0,0.6,0.1c0.1,0,0.1,0.1,0.1,0.2l0.1,0.5l-2.8,0.3l0-0.5c0-0.1,0-0.2,0.2-0.2c0.1-0.1,0.3-0.1,0.6-0.2l-0.7-6.5l-2,0.2
		c0,0.4,0,0.7,0,0.8c0,0.1-0.1,0.1-0.2,0.1l-0.6,0.1l-0.2-1.9l6.3-0.6l0.4,0L94.3,171.4z"/>
	<path class="st0" d="M103.7,170.2l1.7,6.4c0.4,0,0.6,0,0.7-0.1c0.1,0,0.2,0.1,0.2,0.2l0.1,0.5l-2.7,0.7l-0.1-0.5
		c0-0.1,0-0.2,0.1-0.2l0.6-0.3l-1.7-6.4c-0.4,0-0.6,0-0.7,0.1c-0.1,0-0.2-0.1-0.2-0.2l-0.1-0.5l2.7-0.7l0.1,0.5c0,0.1,0,0.2-0.1,0.3
		L103.7,170.2z"/>
	<path class="st0" d="M119.2,163.3l0.2,0.5c0.1,0.1,0,0.2-0.1,0.3l-0.5,0.4l0.3,8.1l-0.9,0.4l-5.9-5.6c-0.3,0.1-0.5,0.1-0.6,0.1
		c-0.1,0-0.2,0-0.2-0.1l-0.2-0.4l2.5-1.2l0.2,0.4c0.1,0.1,0,0.2-0.1,0.3c-0.1,0.1-0.3,0.2-0.5,0.4l4.2,4c0.1,0.1,0.4,0.4,0.6,0.7
		c-0.1-0.4-0.1-0.7-0.1-0.9l-0.3-5.7c-0.4,0.1-0.6,0.1-0.7,0.1c-0.1,0-0.2,0-0.2-0.1l-0.2-0.4L119.2,163.3z"/>
	<path class="st0" d="M134.4,158.2c0.4,0.5,0.6,1,0.8,1.6s0.2,1.1,0.1,1.6c-0.1,0.5-0.2,1-0.5,1.5c-0.3,0.5-0.7,0.9-1.2,1.2
		c-0.5,0.4-1,0.6-1.6,0.7c-0.5,0.1-1.1,0.1-1.6,0.1s-1-0.3-1.5-0.6c-0.5-0.3-0.9-0.7-1.3-1.2c-0.4-0.5-0.6-1-0.8-1.6
		c-0.1-0.5-0.2-1.1-0.1-1.6c0.1-0.5,0.2-1,0.5-1.5c0.3-0.5,0.7-0.9,1.2-1.2s1-0.6,1.5-0.7c0.5-0.1,1.1-0.2,1.6-0.1s1,0.3,1.5,0.6
		C133.6,157.3,134.1,157.7,134.4,158.2L134.4,158.2z M133.5,158.9c-0.3-0.4-0.6-0.8-1-1c-0.4-0.3-0.7-0.4-1.1-0.5
		c-0.4-0.1-0.8-0.1-1.1,0c-0.4,0.1-0.8,0.3-1.1,0.6c-0.4,0.3-0.6,0.6-0.9,0.9c-0.2,0.3-0.3,0.7-0.4,1.1c0,0.4,0,0.8,0.1,1.2
		c0.1,0.4,0.3,0.8,0.6,1.2c0.3,0.4,0.6,0.8,1,1c0.4,0.2,0.7,0.4,1.1,0.5c0.4,0.1,0.8,0.1,1.1,0c0.4-0.1,0.8-0.3,1.1-0.5
		c0.4-0.3,0.6-0.6,0.9-0.9s0.3-0.7,0.4-1.1c0-0.4,0-0.8-0.1-1.2C134,159.7,133.8,159.3,133.5,158.9L133.5,158.9z"/>
	<path class="st0" d="M126.7,116.4H126c0,0-0.1-0.1-0.1-0.1c0-0.1-0.1-0.1-0.1-0.2c-0.1-0.1-0.1-0.1-0.1-0.2l-0.2-0.3
		c-0.1-0.1-0.1-0.2-0.2-0.3s-0.1-0.1-0.1-0.1c-0.1,0-0.1,0-0.2,0h-0.1v0.7c0,0.1,0,0.1,0,0.2c0,0,0,0.1,0.1,0.1c0.1,0,0.1,0,0.2,0
		v0.2H124v-0.2c0.1,0,0.3,0,0.3-0.1c0.1,0,0.1-0.1,0.1-0.2v-1.6c0-0.1,0-0.2-0.1-0.2c0,0-0.1-0.1-0.3-0.1v-0.2l0.6,0
		c0,0,0.1,0,0.1,0s0.1,0,0.2,0c0,0,0.1,0,0.2,0c0.1,0,0.2,0,0.4,0c0.1,0,0.2,0,0.3,0.1c0.1,0,0.2,0.1,0.3,0.1
		c0.1,0.1,0.1,0.1,0.2,0.2c0.1,0.1,0.1,0.2,0.1,0.3c0,0.1,0,0.2-0.1,0.2c0,0.1-0.1,0.2-0.2,0.2c-0.1,0.1-0.2,0.1-0.3,0.2
		c0.1,0.1,0.2,0.1,0.2,0.2c0.1,0.1,0.1,0.2,0.3,0.4c0.1,0.1,0.1,0.2,0.2,0.3s0.1,0.1,0.1,0.1c0,0,0.1,0,0.2,0L126.7,116.4
		L126.7,116.4z M125.7,114.6c0-0.2-0.1-0.3-0.2-0.4s-0.3-0.1-0.5-0.1c0,0-0.1,0-0.1,0c0,0,0,0-0.1,0v1h0.1c0.2,0,0.3,0,0.5-0.1
		C125.6,114.9,125.7,114.8,125.7,114.6"/>
	<path class="st0" d="M125.2,112.1c-1.7,0-3.1,1.4-3.1,3.1s1.4,3.1,3.1,3.1s3.1-1.4,3.1-3.1C128.3,113.5,126.9,112.1,125.2,112.1
		 M125.2,118c-1.5,0-2.8-1.2-2.8-2.8c0-1.6,1.2-2.8,2.8-2.8c1.5,0,2.8,1.2,2.8,2.8C128,116.8,126.7,118,125.2,118"/>
</g>
</svg>
